<?xml version="1.0" standalone="no"?>
<!DOCTYPE svg PUBLIC "-//W3C//DTD SVG 20010904//EN"
 "http://www.w3.org/TR/2001/REC-SVG-20010904/DTD/svg10.dtd">
<svg version="1.0" xmlns="http://www.w3.org/2000/svg"
 width="180.000000pt" height="180.000000pt" viewBox="0 0 180.000000 180.000000"
 preserveAspectRatio="xMidYMid meet">
<metadata>
Created by potrace 1.14, written by Peter Selinger 2001-2017
</metadata>
<g transform="translate(0.000000,180.000000) scale(0.100000,-0.100000)"
fill="#000000" stroke="none">
<path d="M790 1794 c-14 -2 -50 -9 -80 -16 -30 -6 -57 -12 -60 -13 -18 -3 -88
-29 -105 -38 -11 -6 -22 -12 -25 -12 -3 -1 -25 -11 -50 -24 -108 -57 -245
-180 -312 -283 -52 -78 -115 -210 -123 -258 0 -3 -7 -30 -15 -60 -24 -90 -19
-317 9 -415 85 -305 298 -531 591 -629 98 -32 115 -35 240 -42 73 -4 129 -1
185 10 117 22 117 22 195 55 260 109 444 315 526 588 23 77 27 106 27 233 1
161 -12 230 -64 356 -114 273 -366 479 -658 539 -33 7 -248 14 -281 9z"/>
</g>
</svg>
